<?xml version="1.0" encoding="UTF-8"?>
<svg width="220.14mm" height="220.14mm" version="1.1" viewBox="0 0 780.01335 780.01334" xmlns="http://www.w3.org/2000/svg">
 <g transform="translate(-55.871 -10.587)" fill-rule="evenodd">
  <g transform="matrix(1.2353 0 0 1.2353 -13.146 -2.4909)">
   <circle cx="371.59" cy="326.31" r="315.72" fill="#666"/>
   <circle cx="371.59" cy="326.31" r="301.12" fill="#fff"/>
   <circle cx="371.59" cy="326.31" r="291.55" fill="#666"/>
  </g>
  <path d="m607.28 362.59c5.7746 8.3873 8.6615 10.72 14.194 16.522-18.966 86.74-61.891 174.22-126.53 220.18-19.108 16.85-42.257 27.151-72.151 26.522-35.252-5.5385-88.966-48.191-93.774-55.32-43.072-54.479-87.37-114.24-81.651-190 27.116-51.031 60.314-128.52 72.139-176.02 29.615 52.957 71.44 84.477 142.25 85.146 34.323 31.761 69.758 61.928 145.52 72.968z" fill="#fff"/>
  <path d="m299.57 80.554c6.2936 121.26 55.932 198.64 158.94 201.69-40.096-51.427-81.457-156.54-98.235-222.66-21.982 5.0842-40.177 9.7668-60.707 20.965z" fill="#fff"/>
  <path d="m366.85 57.64c52.315 168.54 99.674 273.54 231.99 295.99-77.032-83.109-86.367-240.92-149.35-306.67-27.339 0.6309-54.72 1.4423-82.642 10.686z" fill="#fff"/>
  <path d="m463.44 48.619c66.497 71.906 64.968 284.59 215.36 359.42-47.556-104.37-41.081-229.73-110.86-339.79-33.832-11.57-70.73-19.385-104.5-19.63z" fill="#fff"/>
  <path d="m296.66 125.53 14.661 67.194c-20.026 107.57-81.497 173.34-108.3 283.04-19.619-68.779-3.044-189.66 17.552-213.78 32.942-23.285 51.627-88.331 76.088-136.46z" fill="#fff"/>
  <path d="m293.26 115.71c-20.178 40.88-56.962 144.82-109.91 155.04 12.675-55.488 22.849-125.58 71.04-163.63l37.395-23.079c-0.23624 10.995 0.2453 21.559 1.4796 31.671z" fill="#fff"/>
  <path d="m578.32 72.996c16.822 7.4643 20.501 10.906 35.698 21.214 100.37 93.583 97.708 275.37 126.37 363.71-16.368-13.986-34.698-27.535-47.148-42.392-60.688-124.67-44.161-231.4-114.92-342.53z" fill="#fff"/>
  <path d="m230.75 417.81c4.5924 46.962 21.757 91.644 41.388 135.88-28.405-14.404-47.723-38.466-62.844-66.989 5.0989-23.713 12.496-46.587 21.456-68.89z" fill="#fff"/>
  <path d="m207.45 270.32c-7.7456 6.224-16.665 9.6511-25.924 10.519-9.0591 66.356-33.842 71.292-43.918 101.76 9.0741 20.092 36.343 50.142 50.498 58.395-5.881-43.785-0.68978-99.34 19.345-170.67z" fill="#fff"/>
  <path d="m335.45 603.84c33.308 24.413 47.921 54.243 98.124 65.984 39.644-17.704 61.341-37.77 89.238-71.92-2.6136 35.488 2.0251 54.857-9.5101 91.832-24.692 21.451-49.7 42.587-78.48 59.949-33.827-16.47-59.311-33.921-79.006-52.053-16.171-33.914-14.81-59.878-20.366-93.792z" fill="#fff"/>
  <path d="m456.26 751.31 97.058-51.176-7.0588-21.176 84.926 17.206c-48.188 32.694-105.86 47.743-174.93 55.147z" fill="#fff"/>
  <path d="m420.09 751.31-97.058-51.176 7.0588-21.176-76.323 14.559c45.541 30.929 97.257 50.39 166.32 57.794z" fill="#fff"/>
 </g>
</svg>
